<?xml version="1.0" encoding="UTF-8" standalone="no"?> <svg xmlns="http://www.w3.org/2000/svg" viewBox="0 0 32 32"><defs><style>.cls-1{fill:#2b6f3e;}.cls-2{fill:#4fb15c;}.cls-3{fill:#aeaeae;}.cls-4{fill:#90837c;}.cls-5{fill:#cecece;}.cls-6{fill:#48423e;}.cls-7{fill:#fff;}.cls-8{fill:#e5b48b;}</style></defs><title>pineapple 10</title><g id="pineapple_10" data-name="pineapple 10"><path class="cls-1" d="M15.76,8a.55.55,0,0,1,0,.18L15,11.24a1,1,0,0,1-.7.72l-1.76.5a.84.84,0,0,1-.27,0,1,1,0,0,1-1-.71A7.59,7.59,0,0,0,10.1,9.45h0A12.1,12.1,0,0,0,7.4,6.8a1,1,0,0,1-.35-1.11A1,1,0,0,1,8,5h.1a11.81,11.81,0,0,1,7.27,2.13A1,1,0,0,1,15.76,8Z"/><path class="cls-1" d="M24.6,6.8a12.64,12.64,0,0,0-2.7,2.66l-.26.37-.12.2a6.94,6.94,0,0,0-.8,1.76,1,1,0,0,1-1,.71.84.84,0,0,1-.27,0L17.77,12h0a1,1,0,0,1-.7-.72l-.77-3.06a.55.55,0,0,1,0-.18,1,1,0,0,1,.4-.87,9.85,9.85,0,0,1,2.5-1.34l.22-.08a11.51,11.51,0,0,1,2.51-.58,14.78,14.78,0,0,1,2-.13H24a1,1,0,0,1,.94.69A1,1,0,0,1,24.6,6.8Z"/><path class="cls-2" d="M19.77,11.64A1,1,0,0,1,19,12h-.17a16.3,16.3,0,0,0-5.66,0,1,1,0,0,1-.94-.35,1,1,0,0,1-.17-1l.52-1.38.39-1,1-2.55,1.13-3a1,1,0,0,1,1.88,0L19,8.23l.27.71.09.23.55,1.48A1,1,0,0,1,19.77,11.64Z"/><path class="cls-3" d="M27.24,23.82a7,7,0,0,1-.63,2.2,6.89,6.89,0,0,1-1.1,1.65A7,7,0,0,1,20.3,30H11.7a7,7,0,0,1-5.21-2.33A6.89,6.89,0,0,1,5.39,26a7,7,0,0,1-.63-2.2,6.5,6.5,0,0,1,0-1.59l.44-4,.22-2a6.23,6.23,0,0,1,.3-1.36,7,7,0,0,1,2.2-3.25A6.11,6.11,0,0,1,8.85,11a6.81,6.81,0,0,1,3.52-1h7.26a7,7,0,0,1,6.66,4.87,6.23,6.23,0,0,1,.3,1.36l.22,2,.44,4A6.5,6.5,0,0,1,27.24,23.82Z"/><path class="cls-4" d="M7.71,22.29,10,24.59l.08-.08A21.25,21.25,0,0,1,8.61,18L7,16.41,5.19,18.23l-.44,4a6.5,6.5,0,0,0,0,1.59l1.53-1.53A1,1,0,0,1,7.71,22.29Z"/><path class="cls-4" d="M9.29,26.71,7,24.41,5.39,26a6.89,6.89,0,0,0,1.1,1.65A7,7,0,0,0,11.7,30h2.75A11.4,11.4,0,0,1,11,26.38l-.33.33A1,1,0,0,1,9.29,26.71Z"/><path class="cls-4" d="M7.71,14.29l.82.82A34,34,0,0,1,8.85,11a6.11,6.11,0,0,0-.94.66,7,7,0,0,0-2.2,3.25l.58-.58A1,1,0,0,1,7.71,14.29Z"/><path class="cls-5" d="M8.61,18l.68.68a1,1,0,0,0,1.42,0L13,16.41l2.29,2.3a1,1,0,0,0,1.42,0L19,16.41l2.29,2.3a1,1,0,0,0,1.42,0L25,16.41l1.81,1.82-.22-2a6.23,6.23,0,0,0-.3-1.36l-.58-.58a1,1,0,0,0-1.42,0L22,16.59l-2.29-2.3a1,1,0,0,0-1.42,0L16,16.59l-2.29-2.3a1,1,0,0,0-1.42,0L10,16.59,8.53,15.11C8.51,16,8.53,17,8.61,18Z"/><path class="cls-3" d="M8.61,18c-.08-1-.1-2-.08-2.92l-.82-.82a1,1,0,0,0-1.42,0l-.58.58a6.23,6.23,0,0,0-.3,1.36l-.22,2L7,16.41Z"/><path class="cls-5" d="M25.71,22.29a1,1,0,0,0-1.42,0L22,24.59l-2.29-2.3a1,1,0,0,0-1.42,0L16,24.59l-2.29-2.3a1,1,0,0,0-1.42,0l-2.21,2.22a13.76,13.76,0,0,0,1,1.87l2-2,2.29,2.3a1,1,0,0,0,1.42,0L19,24.41l2.29,2.3a1,1,0,0,0,1.42,0L25,24.41,26.61,26a7,7,0,0,0,.63-2.2Z"/><path class="cls-4" d="M16,27a3.69,3.69,0,0,1-3.32-2.34l-.09-.21A1.07,1.07,0,0,1,13,23.11a.83.83,0,0,1,1.18.44l.09.21a1.85,1.85,0,0,0,3.5,0l.09-.21A.83.83,0,0,1,19,23.11a1.07,1.07,0,0,1,.39,1.34l-.09.21A3.69,3.69,0,0,1,16,27Z"/><path class="cls-6" d="M16,26a4.22,4.22,0,0,1-3.79-2.34l-.1-.21a1,1,0,0,1,1.78-.9l.11.21a2.23,2.23,0,0,0,4,0l.11-.21a1,1,0,1,1,1.78.9l-.1.21A4.22,4.22,0,0,1,16,26Z"/><path class="cls-3" d="M10,24.59l-2.29-2.3a1,1,0,0,0-1.42,0L4.76,23.82A7,7,0,0,0,5.39,26L7,24.41l2.29,2.3a1,1,0,0,0,1.42,0l.33-.33a13.76,13.76,0,0,1-1-1.87Z"/><circle class="cls-4" cx="21" cy="18" r="4"/><circle class="cls-7" cx="21" cy="17" r="4"/><circle class="cls-8" cx="21" cy="17" r="3"/><circle class="cls-6" cx="21" cy="17" r="2"/><circle class="cls-7" cx="22" cy="16" r="1"/><circle class="cls-4" cx="11" cy="18" r="4"/><circle class="cls-7" cx="11" cy="17" r="4"/><circle class="cls-8" cx="11" cy="17" r="3"/><circle class="cls-6" cx="11" cy="17" r="2"/><circle class="cls-7" cx="12" cy="16" r="1"/></g></svg>